# Blender 5.0.1
# www.blender.org
o KitchenLightVolume
v -5.493471 2.541780 0.197035
v -5.232017 1.460255 -1.117385
v -5.493471 1.481036 -1.117385
v -4.949020 1.393639 -1.117385
v -4.615204 1.266034 -1.117385
v -4.448547 1.349232 -0.847888
v -4.448547 1.180300 -1.117385
v -4.448547 1.527601 -0.501160
v -4.448547 1.629043 -0.235786
v -4.448547 1.682000 -0.010813
v -4.448547 1.698521 0.197035
v -4.448547 1.682000 0.404884
v -4.448547 1.629043 0.629857
v -4.448547 1.527601 0.895231
v -4.448547 1.349232 1.241959
v -4.448547 1.099653 1.640112
v -4.529238 1.141163 1.640112
v -4.895729 1.281258 1.640112
v -5.206425 1.354394 1.640112
v -5.493471 1.377209 1.640112
v -5.780517 1.354394 1.640112
v -6.091213 1.281258 1.640112
v -6.457705 1.141163 1.640112
v -6.493471 1.122763 1.640112
v -6.493471 1.400502 1.197035
v -6.493471 1.571203 0.865214
v -6.493471 1.668283 0.611249
v -6.493471 1.718964 0.395948
v -6.493471 1.734774 0.197035
v -6.493471 1.718964 -0.001877
v -6.493471 1.668283 -0.217178
v -6.493471 1.571203 -0.471143
v -6.493471 1.400502 -0.802965
v -6.371738 1.266034 -1.117385
v -6.493471 1.203410 -1.117385
v -6.037922 1.393639 -1.117385
v -4.448547 -0.028648 -1.117385
v -4.448547 -0.028648 1.640112
v -6.493471 -0.028648 1.640112
v -6.493471 -0.028648 -1.117385
v -5.754926 1.460255 -1.117385
vn 0.0617 0.7767 -0.6268
vn 0.1828 0.7767 -0.6027
vn 0.2969 0.7767 -0.5555
vn 0.3996 0.7767 -0.4869
vn 0.4869 0.7767 -0.3996
vn 0.5555 0.7767 -0.2969
vn 0.6027 0.7767 -0.1828
vn 0.6268 0.7767 -0.0617
vn 0.6268 0.7767 0.0617
vn 0.6027 0.7767 0.1828
vn 0.5555 0.7767 0.2969
vn 0.4869 0.7767 0.3996
vn 0.3996 0.7767 0.4869
vn 0.2969 0.7767 0.5555
vn 0.1828 0.7767 0.6027
vn 0.0617 0.7767 0.6268
vn -0.0617 0.7767 0.6268
vn -0.1828 0.7767 0.6027
vn -0.2969 0.7767 0.5555
vn -0.3996 0.7767 0.4869
vn -0.4869 0.7767 0.3996
vn -0.5555 0.7767 0.2969
vn -0.6027 0.7767 0.1828
vn -0.6268 0.7767 0.0617
vn -0.6268 0.7767 -0.0617
vn -0.6027 0.7767 -0.1828
vn -0.5555 0.7767 -0.2969
vn -0.4869 0.7767 -0.3996
vn -0.3996 0.7767 -0.4869
vn -0.2969 0.7767 -0.5555
vn -0.0000 -1.0000 -0.0000
vn -0.1828 0.7767 -0.6027
vn -0.0617 0.7767 -0.6268
vn -1.0000 -0.0000 -0.0000
vn -0.0000 -0.0000 -1.0000
vn 1.0000 -0.0000 -0.0000
vn -0.0000 -0.0000 1.0000
vt 0.250000 0.349041
vt 0.250000 0.250000
vt 0.269701 0.349041
vt 0.269701 0.349041
vt 0.291024 0.349041
vt 0.316177 0.349041
vt 0.316177 0.349041
vt 0.328735 0.328735
vt 0.328735 0.349041
vt 0.328735 0.302609
vt 0.328735 0.328735
vt 0.328735 0.282613
vt 0.328735 0.265661
vt 0.328735 0.282613
vt 0.328735 0.250000
vt 0.328735 0.234339
vt 0.328735 0.217387
vt 0.328735 0.234339
vt 0.328735 0.197391
vt 0.328735 0.171265
vt 0.328735 0.197391
vt 0.322655 0.141264
vt 0.328735 0.171265
vt 0.295040 0.141264
vt 0.322655 0.141264
vt 0.271629 0.141264
vt 0.250000 0.141264
vt 0.228371 0.141264
vt 0.204960 0.141264
vt 0.228371 0.141264
vt 0.177345 0.141264
vt 0.204960 0.141264
vt 0.177345 0.141264
vt 0.174650 0.174650
vt 0.174650 0.141264
vt 0.174650 0.199653
vt 0.174650 0.174650
vt 0.174650 0.218789
vt 0.174650 0.235012
vt 0.174650 0.218789
vt 0.174650 0.250000
vt 0.174650 0.264988
vt 0.174650 0.281211
vt 0.174650 0.264988
vt 0.174650 0.300347
vt 0.174650 0.281211
vt 0.174650 0.325350
vt 0.174650 0.300347
vt 0.183823 0.349041
vt 0.174650 0.325350
vt 0.208976 0.349041
vt 0.183823 0.349041
vt 0.674650 0.141264
vt 0.828735 0.349041
vt 0.828735 0.141264
vt 0.230299 0.349041
vt 0.230299 0.349041
vt 0.482827 0.040170
vt 0.507057 0.130832
vt 0.482827 0.221494
vt 0.468540 0.250000
vt 0.488664 0.372254
vt 0.466865 0.500000
vt 0.503231 0.600324
vt 0.492040 0.682468
vt 0.461019 0.750000
vt 0.481138 0.877746
vt 0.462695 1.000000
vt 0.328735 0.141264
vt 0.174650 0.349041
vt 0.674650 0.349041
vt 0.379234 0.000000
vt 0.462695 0.000000
vt 0.495200 0.070254
vt 0.502237 0.093279
vt 0.505911 0.112798
vt 0.505911 0.148866
vt 0.502237 0.168386
vt 0.495200 0.191411
vt 0.379234 0.250000
vt 0.379234 0.500000
vt 0.473080 0.264882
vt 0.482329 0.305693
vt 0.487158 0.340290
vt 0.487158 0.404218
vt 0.482329 0.438815
vt 0.473080 0.479626
vt 0.379234 0.750000
vt 0.479110 0.524433
vt 0.492040 0.555868
vt 0.499393 0.579927
vt 0.504429 0.619168
vt 0.503231 0.638012
vt 0.499393 0.658408
vt 0.479110 0.713903
vt 0.379234 1.000000
vt 0.464028 0.759865
vt 0.474183 0.804670
vt 0.479485 0.842654
vt 0.479484 0.912839
vt 0.474183 0.950822
vt 0.464028 0.995627
s 0
f 3/1/1 1/2/1 2/3/1
f 2/4/2 1/2/2 4/5/2
f 4/5/3 1/2/3 5/6/3
f 5/7/4 6/8/4 7/9/4
f 1/2/5 8/10/5 6/11/5
f 1/2/6 9/12/6 8/10/6
f 1/2/7 10/13/7 9/14/7
f 1/2/8 11/15/8 10/13/8
f 1/2/9 12/16/9 11/15/9
f 1/2/10 13/17/10 12/18/10
f 1/2/11 14/19/11 13/17/11
f 1/2/12 15/20/12 14/21/12
f 17/22/13 15/23/13 1/2/13
f 1/2/14 18/24/14 17/25/14
f 1/2/15 19/26/15 18/24/15
f 19/26/16 1/2/16 20/27/16
f 20/27/17 1/2/17 21/28/17
f 22/29/18 21/30/18 1/2/18
f 23/31/19 22/32/19 1/2/19
f 23/33/20 25/34/20 24/35/20
f 26/36/21 25/37/21 1/2/21
f 27/38/22 26/36/22 1/2/22
f 28/39/23 27/40/23 1/2/23
f 29/41/24 28/39/24 1/2/24
f 1/2/25 30/42/25 29/41/25
f 31/43/26 30/44/26 1/2/26
f 32/45/27 31/46/27 1/2/27
f 33/47/28 32/48/28 1/2/28
f 34/49/29 33/50/29 1/2/29
f 36/51/30 34/52/30 1/2/30
f 39/53/31 37/54/31 38/55/31
f 41/56/32 36/51/32 1/2/32
f 41/57/33 1/2/33 3/1/33
f 25/58/34 29/59/34 33/60/34
f 35/61/35 3/62/35 7/63/35
f 7/63/36 10/64/36 14/65/36
f 16/66/37 20/67/37 24/68/37
f 5/7/4 1/2/4 6/8/4
f 17/22/13 16/69/13 15/23/13
f 23/33/20 1/2/20 25/34/20
f 34/49/29 35/70/29 33/50/29
f 39/53/31 40/71/31 37/54/31
f 39/72/34 24/73/34 25/58/34
f 25/58/34 26/74/34 27/75/34
f 27/75/34 28/76/34 29/59/34
f 29/59/34 30/77/34 31/78/34
f 31/78/34 32/79/34 33/60/34
f 33/60/34 35/61/34 40/80/34
f 40/80/34 39/72/34 25/58/34
f 25/58/34 27/75/34 29/59/34
f 29/59/34 31/78/34 33/60/34
f 33/60/34 40/80/34 25/58/34
f 37/81/35 40/80/35 35/61/35
f 35/61/35 34/82/35 36/83/35
f 36/83/35 41/84/35 3/62/35
f 3/62/35 2/85/35 4/86/35
f 4/86/35 5/87/35 7/63/35
f 7/63/35 37/81/35 35/61/35
f 35/61/35 36/83/35 3/62/35
f 3/62/35 4/86/35 7/63/35
f 38/88/36 37/81/36 7/63/36
f 7/63/36 6/89/36 8/90/36
f 8/90/36 9/91/36 10/64/36
f 10/64/36 11/92/36 12/93/36
f 12/93/36 13/94/36 14/65/36
f 14/65/36 15/95/36 16/66/36
f 16/66/36 38/88/36 7/63/36
f 7/63/36 8/90/36 10/64/36
f 10/64/36 12/93/36 14/65/36
f 14/65/36 16/66/36 7/63/36
f 39/96/37 38/88/37 16/66/37
f 16/66/37 17/97/37 18/98/37
f 18/98/37 19/99/37 20/67/37
f 20/67/37 21/100/37 22/101/37
f 22/101/37 23/102/37 24/68/37
f 24/68/37 39/96/37 16/66/37
f 16/66/37 18/98/37 20/67/37
f 20/67/37 22/101/37 24/68/37
