# Blender 5.0.1
# www.blender.org
o WallLightVolume-Base
v 1.507493 1.052813 0.597357
v 0.425180 1.052821 -0.892306
v 2.369775 0.381792 -1.180989
v 2.369775 3.080259 -1.180989
v 0.724319 2.619162 0.028348
v 0.786343 0.915315 -0.016708
v 1.991505 1.835988 0.858901
v 0.326006 1.835988 -0.351161
v 0.962171 1.835988 0.524450
v 1.531168 2.756664 0.524441
v 0.501845 2.756660 -0.892306
v 2.369775 1.079449 0.584068
v 2.369775 0.927262 0.530778
v 0.326006 1.835988 -1.180989
v 0.372274 1.470615 -1.180989
v 2.369775 2.993599 0.271908
v 2.369775 3.080259 0.180659
v 2.345302 3.080259 0.196585
v 1.065237 3.080259 -0.219340
v 1.369374 3.080259 0.026474
v 0.899190 3.060204 -1.180989
v 0.571604 2.713546 -1.180989
v 0.925442 3.080259 -0.584550
v 0.925442 3.080259 -1.180989
v 1.954762 3.080259 0.216681
v 2.369775 2.634559 0.589192
v 0.408041 2.265512 -1.180989
v 2.369775 2.448061 0.654497
v 0.544255 1.007485 -1.180989
v 2.369775 1.835988 0.735994
v 1.223190 0.381792 -1.180989
v 1.053107 0.381792 -0.946892
v 0.977044 0.533917 -1.180989
v 1.038426 0.381792 -0.892306
v 1.053107 0.381792 -0.837720
v 1.649609 0.381792 -0.016711
v 1.696993 0.381792 0.014125
v 2.369775 0.852618 0.464815
v 1.753452 0.381792 0.017030
v 2.369775 0.381792 -0.183229
vn 0.0247 -0.3304 0.9435
vn -0.8897 -0.3304 0.3151
vn -0.3066 -0.1256 0.9435
vn -0.9921 -0.1256 -0.0000
vn 0.4089 0.6617 0.6284
vn -0.4713 0.6617 0.5831
vn -0.7002 0.6617 -0.2680
vn -0.6071 0.7947 -0.0000
vn -0.7002 0.6617 0.2680
vn -0.1876 0.7947 0.5773
vn 0.0385 0.6617 0.7488
vn -0.9050 0.3304 -0.2680
vn -0.9822 0.1876 -0.0000
vn -0.9050 0.3304 0.2680
vn -0.5346 0.3304 0.7779
vn -0.3035 0.1876 0.9342
vn -0.0247 0.3304 0.9435
vn -0.8897 -0.3304 -0.3151
vn -0.8026 0.1256 0.5831
vn -0.7947 -0.1876 0.5773
vn -0.5746 -0.3304 0.7488
vn 0.3066 0.1256 0.9435
vn 0.3035 -0.1876 0.9342
vn -0.4911 -0.7947 -0.3568
vn -0.7240 -0.6617 -0.1947
vn -0.7240 -0.6617 0.1947
vn -0.4911 -0.7947 0.3568
vn -0.4089 -0.6617 0.6284
vn -0.0385 -0.6617 0.7488
vn 0.1876 -0.7947 0.5773
vn -0.0000 -0.0000 -1.0000
vn 1.0000 -0.0000 -0.0000
vn -0.0000 -1.0000 -0.0000
vn -0.0000 1.0000 -0.0000
vt 0.090910 0.157461
vt 0.173715 0.171497
vt 0.136365 0.236191
vt 0.818182 0.157461
vt 0.909091 0.157461
vt 0.863636 0.236191
vt 0.045455 0.236191
vt 0.793933 0.199461
vt 0.211485 0.366305
vt 0.205909 0.356647
vt 0.214128 0.365811
vt 0.000000 0.314921
vt 0.065059 0.359696
vt 0.029666 0.366305
vt 0.818182 0.314921
vt 0.793933 0.356921
vt 0.789676 0.314921
vt 0.793933 0.356921
vt 0.844033 0.359696
vt 0.793933 0.359696
vt 0.909091 0.314921
vt 0.844033 0.359696
vt 0.090910 0.314921
vt 0.116760 0.359696
vt 0.065059 0.359696
vt 0.157729 0.356647
vt 0.789676 0.314921
vt 0.793934 0.272921
vt 0.793934 0.236191
vt 0.171888 0.297721
vt 0.171639 0.314921
vt 0.793934 0.199461
vt 0.788209 0.157461
vt 0.954545 0.236191
vt 1.000000 0.157461
vt 0.169773 0.236191
vt 0.173715 0.171497
vt 0.757741 0.104688
vt 0.745589 0.083639
vt 0.769894 0.083639
vt 0.769894 0.083639
vt 0.775010 0.082683
vt 0.866470 0.083639
vt 0.866470 0.083639
vt 0.951711 0.083639
vt 0.956828 0.082684
vt 0.173919 0.157461
vt 0.134082 0.082684
vt 0.139199 0.083639
vt 0.139199 0.083639
vt 0.193632 0.083639
vt 0.176811 0.148786
vt 0.509724 0.291278
vt 0.625000 0.352496
vt 0.389094 0.357766
vt 0.375000 0.500000
vt 0.583708 0.693232
vt 0.425535 0.686856
vt 0.239035 0.531512
vt 0.375000 0.608915
vt 0.306291 0.630458
vt 0.772504 0.500000
vt 0.758227 0.604973
vt 0.667384 0.652569
vt 0.173919 0.157461
vt 0.879425 0.366305
vt 0.171639 0.314921
vt 0.152153 0.366305
vt 0.861354 0.082683
vt 0.176811 0.148786
vt 0.432967 0.313567
vt 0.475874 0.296003
vt 0.549518 0.299656
vt 0.591026 0.316360
vt 0.623142 0.349815
vt 0.625000 0.500000
vt 0.375000 0.382904
vt 0.418620 0.679655
vt 0.625000 0.648637
vt 0.616971 0.658597
vt 0.566430 0.700361
vt 0.509724 0.709257
vt 0.439635 0.692673
vt 0.301452 0.627092
vt 0.240534 0.537471
vt 0.240534 0.525554
vt 0.257904 0.500000
vt 0.312057 0.630775
vt 0.627499 0.650375
vt 0.625000 0.648637
vt 0.772504 0.565107
vt 0.727167 0.631806
s 0
f 1/1/1 12/2/1 7/3/1
f 2/4/2 6/5/2 8/6/2
f 1/1/3 7/3/3 9/7/3
f 8/6/4 15/8/4 2/4/4
f 18/9/5 16/10/5 17/11/5
f 5/12/6 20/13/6 19/14/6
f 11/15/7 21/16/7 22/17/7
f 21/18/8 23/19/8 24/20/8
f 5/21/9 23/22/9 11/15/9
f 10/23/10 25/24/10 20/25/10
f 16/26/11 25/24/11 10/23/11
f 11/15/12 22/27/12 27/28/12
f 8/6/13 27/28/13 14/29/13
f 8/6/14 5/21/14 11/15/14
f 9/7/15 10/23/15 5/12/15
f 9/7/16 7/3/16 10/23/16
f 10/23/17 28/30/17 26/31/17
f 2/4/18 15/32/18 29/33/18
f 8/6/19 9/34/19 5/21/19
f 8/6/20 6/5/20 9/34/20
f 6/5/21 1/35/21 9/34/21
f 7/3/22 30/36/22 28/30/22
f 7/3/23 12/37/23 30/36/23
f 33/38/24 31/39/24 32/40/24
f 29/33/25 32/41/25 34/42/25
f 2/4/26 35/43/26 6/5/26
f 35/44/27 36/45/27 6/5/27
f 1/35/28 36/45/28 37/46/28
f 13/47/29 37/48/29 39/49/29
f 39/50/30 40/51/30 38/52/30
f 14/53/31 24/54/31 33/55/31
f 3/56/32 26/57/32 13/58/32
f 34/59/33 40/60/33 37/61/33
f 24/62/34 19/63/34 25/64/34
f 1/1/1 13/65/1 12/2/1
f 8/6/4 14/29/4 15/8/4
f 5/12/6 10/23/6 20/13/6
f 21/18/8 11/15/8 23/19/8
f 5/21/9 19/66/9 23/22/9
f 10/23/11 26/67/11 16/26/11
f 16/26/11 18/68/11 25/24/11
f 8/6/13 11/15/13 27/28/13
f 10/23/17 7/3/17 28/30/17
f 34/42/25 2/4/25 29/33/25
f 29/33/25 33/38/25 32/41/25
f 2/4/26 34/69/26 35/43/26
f 1/35/28 6/5/28 36/45/28
f 39/49/29 38/70/29 13/47/29
f 13/47/29 1/1/29 37/48/29
f 29/71/31 15/72/31 14/53/31
f 14/53/31 27/73/31 22/74/31
f 22/74/31 21/75/31 24/54/31
f 24/54/31 4/76/31 3/56/31
f 3/56/31 31/77/31 33/55/31
f 33/55/31 29/71/31 14/53/31
f 14/53/31 22/74/31 24/54/31
f 24/54/31 3/56/31 33/55/31
f 38/78/32 40/60/32 3/56/32
f 3/56/32 4/76/32 17/79/32
f 17/79/32 16/80/32 26/57/32
f 26/57/32 28/81/32 30/82/32
f 30/82/32 12/83/32 13/58/32
f 13/58/32 38/78/32 3/56/32
f 3/56/32 17/79/32 26/57/32
f 26/57/32 30/82/32 13/58/32
f 36/84/33 35/85/33 34/59/33
f 34/59/33 32/86/33 31/87/33
f 31/87/33 3/56/33 40/60/33
f 40/60/33 39/88/33 37/61/33
f 37/61/33 36/84/33 34/59/33
f 34/59/33 31/87/33 40/60/33
f 25/64/34 18/89/34 17/90/34
f 17/90/34 4/76/34 24/62/34
f 24/62/34 23/91/34 19/63/34
f 19/63/34 20/92/34 25/64/34
f 25/64/34 17/90/34 24/62/34
